<svg width="40" height="40" viewBox="0 0 40 40" fill="none" xmlns="http://www.w3.org/2000/svg">
  <!-- Outer circle with gradient -->
  <circle cx="20" cy="20" r="19" fill="url(#gradient)" stroke="url(#strokeGradient)" stroke-width="2"/>
  
  <!-- Stylized leaf design -->
  <path d="M20 8C16 8 12 12 12 16C12 20 16 24 20 24C24 24 28 20 28 16C28 12 24 8 20 8ZM20 22C17.2 22 14 19.8 14 16C14 13.2 17.2 10 20 10C22.8 10 26 13.2 26 16C26 19.8 22.8 22 20 22Z" 
        fill="white"/>
  
  <!-- Apple stem -->
  <path d="M19 8V6" stroke="white" stroke-width="2" stroke-linecap="round"/>
  
  <!-- Heart shape at bottom -->
  <path d="M20 26C18 24 16 25 16 27C16 29 18 30 20 32C22 30 24 29 24 27C24 25 22 24 20 26Z" 
        fill="white"/>

  <!-- Gradients definition -->
  <defs>
    <linearGradient id="gradient" x1="0" y1="0" x2="40" y2="40" gradientUnits="userSpaceOnUse">
      <stop offset="0%" stop-color="#4F46E5"/>
      <stop offset="100%" stop-color="#7C3AED"/>
    </linearGradient>
    <linearGradient id="strokeGradient" x1="0" y1="0" x2="40" y2="40" gradientUnits="userSpaceOnUse">
      <stop offset="0%" stop-color="#4F46E5"/>
      <stop offset="100%" stop-color="#7C3AED"/>
    </linearGradient>
  </defs>
</svg>